<svg xmlns="http://www.w3.org/2000/svg" width="1200" height="720" viewBox="0 0 1200 720" role="img" aria-labelledby="title desc">
<title id="title">April 28, 2026 Arkansas Hail Report Map</title>
<desc id="desc">Self-hosted schematic map plotting preliminary SPC hail reports used by SMI Roofing storm event pages.</desc>
<rect width="1200" height="720" fill="#f6f8fb"/>
<rect x="56" y="56" width="1088" height="608" rx="28" fill="#ffffff" stroke="#dce3eb" stroke-width="3"/>
<path d="M110 580 C220 520 280 440 390 455 C500 470 560 385 675 405 C790 425 820 310 960 300 C1030 295 1070 250 1095 200" fill="none" stroke="#dce3eb" stroke-width="12" stroke-linecap="round"/>
<path d="M160 150 L1080 150 M160 265 L1080 265 M160 380 L1080 380 M160 495 L1080 495 M220 100 L220 610 M440 100 L440 610 M660 100 L660 610 M880 100 L880 610" stroke="#eef2f6" stroke-width="2"/>
<text x="96" y="112" font-family="Arial, sans-serif" font-size="30" font-weight="800" fill="#0a1628">April 28, 2026 Hail Reports</text>
<text x="96" y="150" font-family="Arial, sans-serif" font-size="20" font-weight="700" fill="#59677a">Arkansas preliminary SPC report locations used by these pages. Circle size follows reported hail diameter.</text>
<text x="880" y="610" font-family="Arial, sans-serif" font-size="18" font-weight="700" fill="#59677a">Source: NOAA SPC preliminary reports</text>
<text x="96" y="632" font-family="Arial, sans-serif" font-size="18" font-weight="700" fill="#59677a">Schematic report-location map, not a parcel-level hail swath.</text>
<g><circle cx="234.6" cy="163.6" r="10.0" fill="#00C8F0" fill-opacity="0.28" stroke="#007f99" stroke-width="3"/><circle cx="234.6" cy="163.6" r="4" fill="#0a1628"/><text x="248.6" y="153.6" font-family="Arial, sans-serif" font-size="24" font-weight="700" fill="#0a1628">Siloam Springs</text><text x="248.6" y="181.6" font-family="Arial, sans-serif" font-size="20" font-weight="700" fill="#007f99">1.00 in</text></g>
<g><circle cx="474.0" cy="134.0" r="12.3" fill="#00C8F0" fill-opacity="0.28" stroke="#007f99" stroke-width="3"/><circle cx="474.0" cy="134.0" r="4" fill="#0a1628"/><text x="488.0" y="124.0" font-family="Arial, sans-serif" font-size="24" font-weight="700" fill="#0a1628">Highfill</text><text x="488.0" y="152.0" font-family="Arial, sans-serif" font-size="20" font-weight="700" fill="#007f99">1.75 in</text></g>
<g><circle cx="625.2" cy="121.3" r="14.0" fill="#00C8F0" fill-opacity="0.28" stroke="#007f99" stroke-width="3"/><circle cx="625.2" cy="121.3" r="4" fill="#0a1628"/><text x="639.2" y="111.3" font-family="Arial, sans-serif" font-size="24" font-weight="700" fill="#0a1628">2 N Cave Springs</text><text x="639.2" y="139.3" font-family="Arial, sans-serif" font-size="20" font-weight="700" fill="#007f99">2.00 in</text></g>
<g><circle cx="637.8" cy="167.8" r="19.3" fill="#00C8F0" fill-opacity="0.28" stroke="#007f99" stroke-width="3"/><circle cx="637.8" cy="167.8" r="4" fill="#0a1628"/><text x="651.8" y="157.8" font-family="Arial, sans-serif" font-size="24" font-weight="700" fill="#0a1628">3 NE Tontitown</text><text x="651.8" y="185.8" font-family="Arial, sans-serif" font-size="20" font-weight="700" fill="#007f99">2.75 in</text></g>
<g><circle cx="637.8" cy="155.1" r="10.0" fill="#00C8F0" fill-opacity="0.28" stroke="#007f99" stroke-width="3"/><circle cx="637.8" cy="155.1" r="4" fill="#0a1628"/><text x="651.8" y="145.1" font-family="Arial, sans-serif" font-size="24" font-weight="700" fill="#0a1628">1 NE Elm Springs</text><text x="651.8" y="173.1" font-family="Arial, sans-serif" font-size="20" font-weight="700" fill="#007f99">1.00 in</text></g>
<g><circle cx="625.2" cy="134.0" r="21.0" fill="#00C8F0" fill-opacity="0.28" stroke="#007f99" stroke-width="3"/><circle cx="625.2" cy="134.0" r="4" fill="#0a1628"/><text x="639.2" y="124.0" font-family="Arial, sans-serif" font-size="24" font-weight="700" fill="#0a1628">Cave Springs</text><text x="639.2" y="152.0" font-family="Arial, sans-serif" font-size="20" font-weight="700" fill="#007f99">3.00 in</text></g>
<g><circle cx="700.8" cy="138.2" r="10.5" fill="#00C8F0" fill-opacity="0.28" stroke="#007f99" stroke-width="3"/><circle cx="700.8" cy="138.2" r="4" fill="#0a1628"/><text x="714.8" y="128.2" font-family="Arial, sans-serif" font-size="24" font-weight="700" fill="#0a1628">2 W Lowell</text><text x="714.8" y="156.2" font-family="Arial, sans-serif" font-size="20" font-weight="700" fill="#007f99">1.50 in</text></g>
<g><circle cx="625.2" cy="142.5" r="14.0" fill="#00C8F0" fill-opacity="0.28" stroke="#007f99" stroke-width="3"/><circle cx="625.2" cy="142.5" r="4" fill="#0a1628"/><text x="639.2" y="132.5" font-family="Arial, sans-serif" font-size="24" font-weight="700" fill="#0a1628">2 S Cave Springs</text><text x="639.2" y="160.5" font-family="Arial, sans-serif" font-size="20" font-weight="700" fill="#007f99">2.00 in</text></g>
<g><circle cx="637.8" cy="155.1" r="15.8" fill="#00C8F0" fill-opacity="0.28" stroke="#007f99" stroke-width="3"/><circle cx="637.8" cy="155.1" r="4" fill="#0a1628"/><text x="651.8" y="145.1" font-family="Arial, sans-serif" font-size="24" font-weight="700" fill="#0a1628">1 NE Elm Springs</text><text x="651.8" y="173.1" font-family="Arial, sans-serif" font-size="20" font-weight="700" fill="#007f99">2.25 in</text></g>
<g><circle cx="700.8" cy="138.2" r="14.0" fill="#00C8F0" fill-opacity="0.28" stroke="#007f99" stroke-width="3"/><circle cx="700.8" cy="138.2" r="4" fill="#0a1628"/><text x="714.8" y="128.2" font-family="Arial, sans-serif" font-size="24" font-weight="700" fill="#0a1628">2 W Lowell</text><text x="714.8" y="156.2" font-family="Arial, sans-serif" font-size="20" font-weight="700" fill="#007f99">2.00 in</text></g>
<g><circle cx="927.6" cy="201.6" r="17.5" fill="#00C8F0" fill-opacity="0.28" stroke="#007f99" stroke-width="3"/><circle cx="927.6" cy="201.6" r="4" fill="#0a1628"/><text x="941.6" y="191.6" font-family="Arial, sans-serif" font-size="24" font-weight="700" fill="#0a1628">Goshen</text><text x="941.6" y="219.6" font-family="Arial, sans-serif" font-size="20" font-weight="700" fill="#007f99">2.50 in</text></g>
<g><circle cx="814.2" cy="222.7" r="10.5" fill="#00C8F0" fill-opacity="0.28" stroke="#007f99" stroke-width="3"/><circle cx="814.2" cy="222.7" r="4" fill="#0a1628"/><text x="828.2" y="212.7" font-family="Arial, sans-serif" font-size="24" font-weight="700" fill="#0a1628">4 E Fayetteville</text><text x="828.2" y="240.7" font-family="Arial, sans-serif" font-size="20" font-weight="700" fill="#007f99">1.50 in</text></g>
<g><circle cx="385.8" cy="265.0" r="10.0" fill="#00C8F0" fill-opacity="0.28" stroke="#007f99" stroke-width="3"/><circle cx="385.8" cy="265.0" r="4" fill="#0a1628"/><text x="399.8" y="255.0" font-family="Arial, sans-serif" font-size="24" font-weight="700" fill="#0a1628">Lincoln</text><text x="399.8" y="283.0" font-family="Arial, sans-serif" font-size="20" font-weight="700" fill="#007f99">1.25 in</text></g>
<g><circle cx="600.0" cy="226.9" r="12.3" fill="#00C8F0" fill-opacity="0.28" stroke="#007f99" stroke-width="3"/><circle cx="600.0" cy="226.9" r="4" fill="#0a1628"/><text x="614.0" y="216.9" font-family="Arial, sans-serif" font-size="24" font-weight="700" fill="#0a1628">Farmington</text><text x="614.0" y="244.9" font-family="Arial, sans-serif" font-size="20" font-weight="700" fill="#007f99">1.75 in</text></g>
<g><circle cx="562.2" cy="239.6" r="12.3" fill="#00C8F0" fill-opacity="0.28" stroke="#007f99" stroke-width="3"/><circle cx="562.2" cy="239.6" r="4" fill="#0a1628"/><text x="576.2" y="229.6" font-family="Arial, sans-serif" font-size="24" font-weight="700" fill="#0a1628">Walnut Grove</text><text x="576.2" y="257.6" font-family="Arial, sans-serif" font-size="20" font-weight="700" fill="#007f99">1.75 in</text></g>
<g><circle cx="700.8" cy="243.8" r="10.0" fill="#00C8F0" fill-opacity="0.28" stroke="#007f99" stroke-width="3"/><circle cx="700.8" cy="243.8" r="4" fill="#0a1628"/><text x="714.8" y="233.8" font-family="Arial, sans-serif" font-size="24" font-weight="700" fill="#0a1628">Greenland</text><text x="714.8" y="261.8" font-family="Arial, sans-serif" font-size="20" font-weight="700" fill="#007f99">1.00 in</text></g>
<g><circle cx="398.4" cy="586.0" r="10.0" fill="#00C8F0" fill-opacity="0.28" stroke="#007f99" stroke-width="3"/><circle cx="398.4" cy="586.0" r="4" fill="#0a1628"/><text x="412.4" y="576.0" font-family="Arial, sans-serif" font-size="24" font-weight="700" fill="#0a1628">Hackett</text><text x="412.4" y="604.0" font-family="Arial, sans-serif" font-size="20" font-weight="700" fill="#007f99">1.00 in</text></g>
</svg>
